<!--?xml version="1.0" standalone="no"?-->
              <svg id="sw-js-blob-svg" viewBox="0 0 100 100" xmlns="http://www.w3.org/2000/svg" version="1.1">
                    <defs> 
                        <linearGradient id="sw-gradient" x1="0" x2="1" y1="1" y2="0">
                            <stop id="stop1" stop-color="rgba(255, 239.074, 248.279, 1)" offset="0%"></stop>
                            <stop id="stop2" stop-color="rgba(255, 178.608, 220.173, 1)" offset="100%"></stop>
                        </linearGradient>
                    </defs>
                <path fill="url(#sw-gradient)" d="M25.2,-27.1C32.9,-23.5,39.7,-15.9,40.9,-7.4C42.2,1,38,10.3,32.4,17.6C26.9,25,20,30.5,12,33.9C4,37.2,-5.2,38.3,-13.3,35.8C-21.4,33.2,-28.5,26.8,-32.3,19.2C-36.1,11.5,-36.8,2.4,-35.9,-7C-35,-16.4,-32.5,-26.1,-26.3,-30C-20.1,-33.9,-10,-32,-0.7,-31.2C8.7,-30.4,17.4,-30.8,25.2,-27.1Z" width="100%" height="100%" transform="translate(50 50)" stroke-width="0" style="transition: all 0.3s ease 0s;" stroke="url(#sw-gradient)"></path>
              </svg>